<svg width="18" height="19" viewBox="0 0 18 19" fill="none" xmlns="http://www.w3.org/2000/svg">
<path d="M1.75 17.3333C1.41667 17.3333 1.125 17.2083 0.875 16.9583C0.625 16.7083 0.5 16.4167 0.5 16.0833V3.16666C0.5 2.83332 0.625 2.54166 0.875 2.29166C1.125 2.04166 1.41667 1.91666 1.75 1.91666H3.10417V0.666656H4.45833V1.91666H11.5417V0.666656H12.8958V1.91666H14.25C14.5833 1.91666 14.875 2.04166 15.125 2.29166C15.375 2.54166 15.5 2.83332 15.5 3.16666V9.43749H14.25V7.12499H1.75V16.0833H8.39583V17.3333H1.75ZM16.5208 12.7708L15.0417 11.2917L15.6458 10.6875C15.7613 10.5764 15.9082 10.5208 16.0866 10.5208C16.265 10.5208 16.4097 10.5764 16.5208 10.6875L17.125 11.2917C17.2361 11.4071 17.2917 11.554 17.2917 11.7324C17.2917 11.9108 17.2361 12.0555 17.125 12.1667L16.5208 12.7708ZM9.64583 18.1667V16.6875L14.1458 12.1875L15.625 13.6667L11.125 18.1667H9.64583ZM1.75 5.87499H14.25V3.16666H1.75V5.87499Z" fill="black"/>
</svg>
