<?xml version="1.0" encoding="utf-8"?>
<!-- Generator: Adobe Illustrator 27.2.0, SVG Export Plug-In . SVG Version: 6.00 Build 0)  -->
<svg version="1.1" id="Layer_1" xmlns="http://www.w3.org/2000/svg" xmlns:xlink="http://www.w3.org/1999/xlink" x="0px" y="0px"
	 viewBox="0 0 425.2 425.2" style="enable-background:new 0 0 425.2 425.2;" xml:space="preserve">
<g>
	<g>
		<path d="M199.41,41.86l-45.63,44.9c-2.68,2.63-1.7,7.16,1.82,8.46l51.3,18.87c3.53,1.3,7.2-1.52,6.87-5.26l-5.67-63.76
			C207.72,40.75,202.49,38.82,199.41,41.86z"/>
	</g>
	<g>
		<path d="M82.29,47.13l0.28,61.24c-0.63,3.7,2.8,6.8,6.42,5.79l52.65-14.68c3.62-1.01,4.95-5.44,2.5-8.28L91.21,44.65
			C88.38,41.37,83.02,42.87,82.29,47.13z"/>
	</g>
	<g>
		<ellipse cx="147.84" cy="116.97" rx="66.73" ry="51.23"/>
	</g>
	<g>
		<path d="M82.29,47.13l0.28,61.24c-0.63,3.7,2.8,6.8,6.42,5.79l52.65-14.68c3.62-1.01,4.95-5.44,2.5-8.28L91.21,44.65
			C88.38,41.37,83.02,42.87,82.29,47.13z"/>
	</g>
	<g>
		<path d="M199.41,41.86l-45.63,44.9c-2.68,2.63-1.7,7.16,1.82,8.46l51.3,18.87c3.53,1.3,7.2-1.52,6.87-5.26l-5.67-63.76
			C207.72,40.75,202.49,38.82,199.41,41.86z"/>
	</g>
</g>
<path d="M177.72,350.19H42.98c-13.02,0-29.1-11.13-29.1-24.85v-44.16c0-98.53,63.03-137.81,133.95-137.81h39.24
	c7.28,0,13.19,6.22,13.19,13.9v169.18C200.25,339.56,190.16,350.19,177.72,350.19z"/>
<path d="M174.48,350.19h-10.5V219.4l34.34-68.93c24.1,33.75,38.21,98.21,38.21,134.33v0C236.52,320.92,208.74,350.19,174.48,350.19z
	"/>
<ellipse transform="matrix(0.8268 -0.5625 0.5625 0.8268 -74.7348 79.1811)" cx="91.22" cy="160.95" rx="31.18" ry="17.28"/>
<ellipse cx="307.31" cy="201.38" rx="15.33" ry="16.44"/>
<path d="M291.04,189.52c0,4.79-3.62,8.67-8.09,8.67s-8.09-3.88-8.09-8.67c0-4.79,4.84-14.57,9.3-14.57
	C288.64,174.95,291.04,184.73,291.04,189.52z"/>
<path d="M305.93,172.75c0,4.95-3.74,8.96-8.36,8.96c-4.62,0-8.36-4.01-8.36-8.96s5-15.06,9.62-15.06
	C303.45,157.69,305.93,167.8,305.93,172.75z"/>
<path d="M325.38,172.75c0,4.95-3.74,8.96-8.36,8.96c-4.62,0-8.36-4.01-8.36-8.96s5-15.06,9.62-15.06S325.38,167.8,325.38,172.75z"/>
<path d="M340.5,189.58c0,4.95-3.74,8.96-8.36,8.96c-4.62,0-8.36-4.01-8.36-8.96s5-15.06,9.62-15.06
	C338.02,174.52,340.5,184.63,340.5,189.58z"/>
<path d="M409.34,129.63c-1.71-2.13-4.29-3.37-7.02-3.37h-162.8c-4.22,0-7.88,2.93-8.79,7.06l-6.94,31.38
	c4.75,9.96,8.65,20.29,11.8,29.97l11.15-50.4h144.37l-20.58,92.99h-124.1c1.15,6.1,2.12,12.14,2.9,18h128.42
	c4.22,0,7.88-2.93,8.79-7.06l24.56-110.99C411.7,134.55,411.05,131.76,409.34,129.63z"/>
<path d="M374.36,246.26H248.02c2.26,14.02,3.51,27.38,3.51,38.54c0,10.19-1.85,19.93-5.17,28.91h57.61c3.2,0,6.12-1.25,7.54-3.22
	l70.39-55.87C384.67,250.77,380.6,246.26,374.36,246.26z"/>
<g>
	<path d="M56.64,307.74c-0.84,6.02-2.89,12.34-4.51,18.35c-1.68,5.98-3.89,12.38-3.45,18.54c2.09,18.47,18.06,24.34,34.88,24.23
		c9.49,0.04,19.15-1.61,28.38-3.81c12.47-3.13,24.74-7.5,36.51-12.79c24.71-9.93,40.35,24.8,16.42,36.68
		c-1.21,0.54-2.43,0.96-3.68,1.24c-16.3,3.82-32.47,7.46-49.26,9.38c-27.48,3.18-60.84,1.97-80.15-21.12
		c-6.94-8.02-10.69-18.12-13.21-28.02c-5.03-17.88-7.4-36.45-0.51-53.9c0.26-0.77,0.57-1.29,0.84-2.01
		c3.65-10.42,15.07-15.91,25.49-12.26S60.3,297.32,56.64,307.74L56.64,307.74z"/>
</g>
</svg>
