<svg width="39" height="35" viewBox="0 0 39 35" fill="none" xmlns="http://www.w3.org/2000/svg">
<path d="M19.4766 27.5313C21.7422 27.5313 23.6406 26.7656 25.1719 25.2344C26.7031 23.7031 27.4688 21.8047 27.4688 19.5391C27.4688 17.2734 26.7031 15.3828 25.1719 13.8672C23.6406 12.3516 21.7422 11.5937 19.4766 11.5937C17.2109 11.5937 15.3203 12.3516 13.8047 13.8672C12.2891 15.3828 11.5312 17.2734 11.5312 19.5391C11.5312 21.8047 12.2891 23.7031 13.8047 25.2344C15.3203 26.7656 17.2109 27.5313 19.4766 27.5313ZM19.4766 24.7188C17.9922 24.7188 16.7656 24.2266 15.7969 23.2422C14.8281 22.2578 14.3437 21.0234 14.3437 19.5391C14.3437 18.0547 14.8281 16.8281 15.7969 15.8594C16.7656 14.8906 17.9922 14.4063 19.4766 14.4063C20.9609 14.4063 22.1953 14.8906 23.1797 15.8594C24.1641 16.8281 24.6562 18.0547 24.6562 19.5391C24.6562 21.0234 24.1641 22.2578 23.1797 23.2422C22.1953 24.2266 20.9609 24.7188 19.4766 24.7188ZM3.5625 34.375C2.8125 34.375 2.15625 34.0938 1.59375 33.5313C1.03125 32.9688 0.75 32.3125 0.75 31.5625V7.51562C0.75 6.79688 1.03125 6.14844 1.59375 5.57031C2.15625 4.99219 2.8125 4.70312 3.5625 4.70312H10.4531L13.875 0.625H25.125L28.5469 4.70312H35.4375C36.1562 4.70312 36.8047 4.99219 37.3828 5.57031C37.9609 6.14844 38.25 6.79688 38.25 7.51562V31.5625C38.25 32.3125 37.9609 32.9688 37.3828 33.5313C36.8047 34.0938 36.1562 34.375 35.4375 34.375H3.5625ZM35.4375 31.5625V7.51562H27.2344L23.8125 3.4375H15.1875L11.7656 7.51562H3.5625V31.5625H35.4375Z" fill="#FF6565"/>
</svg>
