<svg width="103" height="103" viewBox="0 0 103 103" fill="none" xmlns="http://www.w3.org/2000/svg">
<path d="M51.2989 99.2792C49.4167 99.2792 47.8252 97.8282 47.6799 95.9218C47.5273 93.9233 49.0194 92.1816 51.0155 92.0242C51.1415 92.0145 63.6337 90.8881 67.8535 81.7896C72.7661 71.2013 70.7725 66.2378 68.4882 63.096C67.3085 61.473 67.667 59.2008 69.29 58.0211C70.913 56.8414 73.1852 57.1999 74.3649 58.8229C79.3599 65.6904 79.3865 74.2026 74.4473 84.849C68.4179 97.8427 52.263 99.2186 51.5799 99.2695C51.4854 99.2768 51.391 99.2792 51.2989 99.2792Z" fill="#959595"/>
<path d="M53.0891 99.2768H22.7075C17.5962 99.2768 13.4515 95.1321 13.4515 90.0208V88.8096C13.4515 78.3595 21.9251 69.8859 32.3752 69.8859H43.4238C53.8739 69.8859 62.3475 78.3595 62.3475 88.8096V90.0208C62.345 95.1321 58.2003 99.2768 53.0891 99.2768Z" fill="#959595"/>
<path d="M74.52 6.94015C66.2184 6.94015 59.4915 13.6695 59.4915 21.9686V32.6393C59.4915 40.9408 66.2209 47.6678 74.52 47.6678C82.8215 47.6678 89.5485 40.9384 89.5485 32.6393V21.9711C89.5485 13.6695 82.8215 6.94015 74.52 6.94015ZM75.9153 32.4431C75.5495 32.8088 75.0965 32.9833 74.6411 32.9833C74.2583 32.9833 73.786 32.8621 73.3669 32.4431C73.1392 32.2154 72.8267 31.7987 72.8267 31.1689C72.8267 30.5415 73.1416 30.1224 73.3669 29.8947C73.786 29.4756 74.239 29.3545 74.6217 29.3545C75.0747 29.3545 75.5471 29.5289 75.9298 29.9117C76.2253 30.2072 76.4361 30.5924 76.4361 31.1665C76.4409 31.7454 76.2302 32.1281 75.9153 32.4431ZM77.9404 26.6511C77.4704 27.1744 76.7897 27.5934 75.9879 27.7678V28.6932H73.144V25.8663C73.3354 25.9196 73.5098 25.9535 73.7375 25.9535C74.2777 25.9535 74.9584 25.796 75.3775 25.377C75.6391 25.1153 75.7796 24.7496 75.7796 24.4177C75.7796 24.1391 75.6924 23.8072 75.4841 23.5989C75.2927 23.3906 74.9778 23.267 74.6459 23.267C74.3141 23.267 74.0524 23.3882 73.895 23.5626C73.7036 23.7539 73.5801 24.0858 73.5801 24.4346H70.5109C70.5642 23.3349 71.0341 22.4822 71.5574 21.959C72.1339 21.3824 73.1271 20.8253 74.5926 20.8253C76.0582 20.8253 77.0514 21.3655 77.6812 21.959C78.3086 22.5524 78.7809 23.4075 78.7809 24.454C78.7761 25.205 78.4975 26.0237 77.9404 26.6511Z" fill="#959595"/>
<path d="M64.8789 52.125L76.9399 47.0549C78.5581 46.3742 78.8318 44.1989 77.4341 43.1379L67.0106 35.2288C65.6129 34.1678 63.5926 35.0181 63.3721 36.7598L61.7322 49.7413C61.5142 51.4782 63.2631 52.8057 64.8789 52.125Z" fill="#959595"/>
<path d="M58.7696 80.0915L53.9466 58.4498C53.4379 56.1655 52.3357 54.0992 50.8023 52.3575C52.8468 50.2791 54.0629 47.692 54.0629 44.8845C54.0629 44.2328 53.9975 43.5933 53.8715 42.9708C53.8715 42.9514 53.8715 42.9296 53.8691 42.9102L52.4956 27.4651C52.4035 26.421 51.1366 25.9559 50.3905 26.6899L43.6781 33.2957C41.8831 32.7677 39.9355 32.4746 37.8983 32.4746C35.7181 32.4746 33.6397 32.8088 31.743 33.4072L25.2171 26.9854C24.471 26.2514 23.2041 26.7165 23.112 27.7606L21.7385 43.2057C21.7216 43.3923 21.7482 43.5691 21.8063 43.729C21.7603 44.1093 21.7337 44.492 21.7337 44.882C21.7337 47.6872 22.9473 50.2743 24.9942 52.3551C23.4608 54.0944 22.3586 56.1631 21.8499 58.4474L17.027 80.089C15.0333 89.0325 22.7729 97.3583 33.0753 97.3583H37.8983H42.7212C53.0237 97.3607 60.7632 89.0349 58.7696 80.0915ZM31.0647 44.2716C29.4151 44.1456 28.2741 42.1665 28.5139 39.8532C28.5745 39.2597 28.7247 38.7001 28.9354 38.2011L33.8626 37.1885C34.3616 37.9976 34.6111 39.1046 34.4851 40.3086C34.2453 42.6219 32.7144 44.3976 31.0647 44.2716ZM41.6215 47.8325L41.4616 47.9924C41.1128 48.3412 40.5459 48.3412 40.1971 47.9924L37.9613 45.7565L35.7278 47.99C35.379 48.3388 34.8121 48.3388 34.4633 47.99L34.3034 47.8301C33.9546 47.4813 33.9546 46.9144 34.3034 46.5656L37.9637 42.9054L38.7558 43.6975C38.7606 43.7023 38.7606 43.7048 38.7655 43.7096L41.6239 46.568C41.9727 46.9168 41.9727 47.4837 41.6215 47.8325ZM44.4896 44.2716C42.8399 44.3976 41.309 42.6219 41.0668 40.3061C40.9408 39.1046 41.1927 37.9952 41.6893 37.1861L46.6164 38.1987C46.8296 38.7001 46.9774 39.2572 47.0379 39.8507C47.2802 42.169 46.1392 44.148 44.4896 44.2716Z" fill="#959595"/>
</svg>

