<svg width="31" height="31" viewBox="0 0 31 31" fill="none" xmlns="http://www.w3.org/2000/svg">
<path d="M9.33333 30.9166V28.2187C6.60972 27.1396 4.38715 25.4694 2.66562 23.2083C0.944092 20.9472 0.0833282 18.3778 0.0833282 15.5C0.0833282 13.3673 0.488016 11.3632 1.29739 9.48748C2.10677 7.61179 3.2052 5.98019 4.5927 4.59269C5.9802 3.20519 7.6118 2.10675 9.4875 1.29738C11.3632 0.488001 13.3674 0.083313 15.5 0.083313C17.6326 0.083313 19.6368 0.488001 21.5125 1.29738C23.3882 2.10675 25.0198 3.20519 26.4073 4.59269C27.7948 5.98019 28.8932 7.61179 29.7026 9.48748C30.512 11.3632 30.9167 13.3673 30.9167 15.5C30.9167 18.3778 30.0559 20.9472 28.3344 23.2083C26.6128 25.4694 24.3903 27.1396 21.6667 28.2187V30.9166H9.33333ZM12.0312 15.5385H18.9687V2.85831C18.4035 2.70415 17.8318 2.58852 17.2536 2.51144C16.6755 2.43435 16.091 2.39581 15.5 2.39581C14.909 2.39581 14.3245 2.43435 13.7463 2.51144C13.1682 2.58852 12.5965 2.70415 12.0312 2.85831V15.5385ZM2.39583 15.5385H9.71875V3.74477C7.53472 4.82394 5.76822 6.40989 4.41927 8.50262C3.07031 10.5954 2.39583 12.9407 2.39583 15.5385ZM21.2812 15.5385H28.6042C28.6042 12.9177 27.9297 10.5666 26.5807 8.4854C25.2318 6.40415 23.4653 4.82394 21.2812 3.74477V15.5385ZM11.6458 28.6041H19.3542V26.6385C21.5896 25.6621 23.5038 24.4095 25.0969 22.8807C26.6899 21.3519 27.7434 19.6753 28.2573 17.851H2.7427C3.25659 19.6753 4.31006 21.3519 5.90312 22.8807C7.49618 24.4095 9.41041 25.6621 11.6458 26.6385V28.6041Z"/>
</svg>
