<svg width="24" height="31" viewBox="0 0 24 31" fill="none" xmlns="http://www.w3.org/2000/svg">
<path d="M4.81771 30.8333V16.65C3.4816 16.3674 2.34462 15.6929 1.40677 14.6266C0.468924 13.5602 0 12.2819 0 10.7917V0H2.3125V10.7917H4.81771V0H7.13021V10.7917H9.63542V0H11.9479V10.7917C11.9479 12.2819 11.479 13.5602 10.5411 14.6266C9.6033 15.6929 8.46632 16.3674 7.13021 16.65V30.8333H4.81771ZM20.8125 30.8333V18.5H16.3802V6.74479C16.3802 4.71493 16.9969 3.08333 18.2302 1.85C19.4635 0.616667 21.0951 0 23.125 0V30.8333H20.8125Z" />
</svg>
