<svg width="29" height="29" viewBox="0 0 29 29" fill="none" xmlns="http://www.w3.org/2000/svg">
<path d="M11.165 29L10.44 24.4325C9.98083 24.2633 9.4975 24.0337 8.99 23.7437C8.4825 23.4537 8.03542 23.1517 7.64875 22.8375L3.37125 24.795L0 18.85L3.915 15.9862C3.86667 15.7687 3.83646 15.521 3.82437 15.2431C3.81229 14.9652 3.80625 14.7175 3.80625 14.5C3.80625 14.2825 3.81229 14.0348 3.82437 13.7569C3.83646 13.479 3.86667 13.2312 3.915 13.0137L0 10.15L3.37125 4.205L7.64875 6.1625C8.03542 5.84833 8.4825 5.54625 8.99 5.25625C9.4975 4.96625 9.98083 4.74875 10.44 4.60375L11.165 0H17.835L18.56 4.5675C19.0192 4.73667 19.5085 4.96021 20.0281 5.23812C20.5477 5.51604 20.9887 5.82417 21.3512 6.1625L25.6287 4.205L29 10.15L25.085 12.9412C25.1333 13.1829 25.1635 13.4427 25.1756 13.7206C25.1877 13.9985 25.1937 14.2583 25.1937 14.5C25.1937 14.7417 25.1877 14.9954 25.1756 15.2612C25.1635 15.5271 25.1333 15.7808 25.085 16.0225L29 18.85L25.6287 24.795L21.3512 22.8375C20.9646 23.1517 20.5235 23.4598 20.0281 23.7619C19.5327 24.064 19.0433 24.2875 18.56 24.4325L17.835 29H11.165ZM14.5 19.2125C15.805 19.2125 16.9167 18.7533 17.835 17.835C18.7533 16.9167 19.2125 15.805 19.2125 14.5C19.2125 13.195 18.7533 12.0833 17.835 11.165C16.9167 10.2467 15.805 9.7875 14.5 9.7875C13.195 9.7875 12.0833 10.2467 11.165 11.165C10.2467 12.0833 9.7875 13.195 9.7875 14.5C9.7875 15.805 10.2467 16.9167 11.165 17.835C12.0833 18.7533 13.195 19.2125 14.5 19.2125ZM14.5 17.0375C13.7992 17.0375 13.201 16.7898 12.7056 16.2944C12.2102 15.799 11.9625 15.2008 11.9625 14.5C11.9625 13.7992 12.2102 13.201 12.7056 12.7056C13.201 12.2102 13.7992 11.9625 14.5 11.9625C15.2008 11.9625 15.799 12.2102 16.2944 12.7056C16.7898 13.201 17.0375 13.7992 17.0375 14.5C17.0375 15.2008 16.7898 15.799 16.2944 16.2944C15.799 16.7898 15.2008 17.0375 14.5 17.0375ZM12.905 26.825H16.095L16.6025 22.765C17.4 22.5717 18.1552 22.2696 18.8681 21.8587C19.581 21.4479 20.2275 20.9525 20.8075 20.3725L24.65 22.04L26.1 19.43L22.6925 16.9287C22.7892 16.5179 22.8677 16.1131 22.9281 15.7144C22.9885 15.3156 23.0187 14.9108 23.0187 14.5C23.0187 14.0892 22.9946 13.6844 22.9462 13.2856C22.8979 12.8869 22.8133 12.4821 22.6925 12.0712L26.1 9.57L24.65 6.96L20.8075 8.6275C20.2517 7.99917 19.6233 7.47354 18.9225 7.05062C18.2217 6.62771 17.4483 6.35583 16.6025 6.235L16.095 2.175H12.905L12.3975 6.235C11.5758 6.40417 10.8085 6.69417 10.0956 7.105C9.38271 7.51583 8.74833 8.02333 8.1925 8.6275L4.35 6.96L2.9 9.57L6.3075 12.0712C6.21083 12.4821 6.13229 12.8869 6.07187 13.2856C6.01146 13.6844 5.98125 14.0892 5.98125 14.5C5.98125 14.9108 6.01146 15.3156 6.07187 15.7144C6.13229 16.1131 6.21083 16.5179 6.3075 16.9287L2.9 19.43L4.35 22.04L8.1925 20.3725C8.7725 20.9525 9.41896 21.4479 10.1319 21.8587C10.8448 22.2696 11.6 22.5717 12.3975 22.765L12.905 26.825Z" fill="black"/>
</svg>
